<svg xmlns="http://www.w3.org/2000/svg" width="3000" height="316" viewBox="0 0 3000 316">
  <rect data-name="Цвет досок" class='cls-1' fill='#ba7967' x="-5" y="3" width="3174" height="257"/>
  <rect data-name="Цвет низа" class='cls-2' fill='#3f4441' y="261" width="3000" height="56"/>
  <g data-name="грани досок">
    <path class="cls-3" fill='#5e6f64' stroke='#1f1f1f' stroke-width="3px" stroke-linejoin='round' d="M2760,241h245a0,0,0,0,1,0,0v27a0,0,0,0,1,0,0H2760a5,5,0,0,1-5-5V246A5,5,0,0,1,2760,241Z"/>
    <path class="cls-4" fill='#5e6f64' stroke='#1f1f1f' stroke-width="3px" d="M2353,241h395a7,7,0,0,1,7,7v15a5,5,0,0,1-5,5H2353a6,6,0,0,1-6-6V247A6,6,0,0,1,2353,241Z"/>
    <path class="cls-4" fill='#5e6f64' stroke='#1f1f1f' stroke-width="3px" d="M1941,241h395a5,5,0,0,1,5,5v17a5,5,0,0,1-5,5H1940a5,5,0,0,1-5-5V247A6,6,0,0,1,1941,241Z"/>
    <path class="cls-4" fill='#5e6f64' stroke='#1f1f1f' stroke-width="3px" d="M1532,241h395a6,6,0,0,1,6,6v16a5,5,0,0,1-5,5H1530a5,5,0,0,1-5-5V248A7,7,0,0,1,1532,241Z"/>
    <path class="cls-4" fill='#5e6f64' stroke='#1f1f1f' stroke-width="3px" d="M1126,241h389a9,9,0,0,1,9,9v12a6,6,0,0,1-6,6H1124a7,7,0,0,1-7-7V250A9,9,0,0,1,1126,241Z"/>
    <path class="cls-4" fill='#5e6f64' stroke='#1f1f1f' stroke-width="3px" d="M717,241h391a8,8,0,0,1,8,8v10a9,9,0,0,1-9,9H715a8,8,0,0,1-8-8v-9A10,10,0,0,1,717,241Z"/>
    <path class="cls-4" fill='#5e6f64' stroke='#1f1f1f' stroke-width="3px" d="M305,241H698a7,7,0,0,1,7,7v12a8,8,0,0,1-8,8H303a7,7,0,0,1-7-7V250A9,9,0,0,1,305,241Z"/>
    <path class="cls-4" fill='#5e6f64' stroke='#1f1f1f' stroke-width="3px" d="M-6,241H285a9,9,0,0,1,9,9v11a7,7,0,0,1-7,7H-6a0,0,0,0,1,0,0V241A0,0,0,0,1-6,241Z"/>
  </g>
  <g data-name="доски">
    <path class="cls-5" fill='#1a1a1a' fill-rule='evenodd' stroke='#000' stroke-width="1px" stroke-linecap='round' d="M2759,3053.21l-1,2.8-663-235.22,1-2.8Z" transform="translate(0 -2812)"/>
    <path class="cls-5" fill='#1a1a1a' fill-rule='evenodd' stroke='#000' stroke-width="1px" stroke-linecap='round' d="M2756.65,3054.8l-1.01,2.83L2091,2818.78l0.99-2.79Z" transform="translate(0 -2812)"/>
    <path class="cls-5" fill='#1a1a1a' fill-rule='evenodd' stroke='#000' stroke-width="1px" stroke-linecap='round' d="M2352.97,3053.96l-2.39,1.92-450.81-235.25,0.99-4.06Z" transform="translate(0 -2812)"/>
    <path class="cls-5" fill='#1a1a1a' fill-rule='evenodd' stroke='#000' stroke-width="1px" stroke-linecap='round' d="M2339.78,3054.17l-2.42,1.88-443.37-235.93,0.98-4.12Z" transform="translate(0 -2812)"/>
    <path class="cls-6" fill='#1a1a1a' fill-rule='evenodd' stroke='#000' stroke-width="1px" stroke-linecap='round' stroke-linejoin='round' d="M2348.79,3074.73l-1.58,2.54-8-5,1.58-2.54Z" transform="translate(0 -2812)"/>
    <path class="cls-7" fill='#1f1f1f' fill-rule='evenodd' d="M1939,3053.86l-2.12,2.14L1704,2819.14l2.12-2.14Zm0,0-2.12,2.14L1704,2819.14l2.12-2.14Zm0,0-2.12,2.14L1704,2819.14l2.12-2.14Z" transform="translate(0 -2812)"/>
    <path class="cls-7" fill='#1f1f1f' fill-rule='evenodd' d="M1931,3053.79l-2.11,2.21-224.22-236.53,2.08-2.08Zm0,0-2.11,2.21-224.22-236.53,2.08-2.08Zm0,0-2.11,2.21-224.22-236.53,2.08-2.08Z" transform="translate(0 -2812)"/>
    <path class="cls-7" fill='#1f1f1f' fill-rule='evenodd' d="M1528.5,3055.91l-3,.18-14-240,3-.18Z" transform="translate(0 -2812)"/>
    <path class="cls-7" fill='#1f1f1f' fill-rule='evenodd' d="M1523.39,3057.8l-2.55-.2L1509,2816.21l2.97-.2Z" transform="translate(0 -2812)"/>
    <path class="cls-7" fill='#1f1f1f' fill-rule='evenodd' d="M1929.86,3071.98l2.28-1.96,6,7-2.28,1.96Z" transform="translate(0 -2812)"/>
    <path class="cls-7" fill='#1f1f1f' fill-rule='evenodd' d="M1121.15,3057.97l-2.3-1.94,201-239,2.3,1.94Z" transform="translate(0 -2812)"/>
    <path class="cls-7" fill='#1f1f1f' fill-rule='evenodd' d="M1113.13,3055.99l-2.26-1.98,207-237,2.26,1.98Z" transform="translate(0 -2812)"/>
    <path class="cls-8" fill='#5e6f64' fill-rule='evenodd' stroke='#1f1f1f' stroke-width="3px" d="M1115.17,3075.94l-2.34-1.88,4-5,2.34,1.88Z" transform="translate(0 -2812)"/>
    <path class="cls-8" fill='#5e6f64' fill-rule='evenodd' stroke='#1f1f1f' stroke-width="3px" d="M1938,3061.1l-2.9,2.9-4.1-4.1,2.9-2.9Z" transform="translate(0 -2812)"/>
    <path class="cls-8" fill='#5e6f64' fill-rule='evenodd' stroke='#1f1f1f' stroke-width="3px" d="M2348.67,3060.66l-1.34,2.68-8-4,1.34-2.68Z" transform="translate(0 -2812)"/>
    <path class="cls-8" fill='#5e6f64' fill-rule='evenodd' stroke='#1f1f1f' stroke-width="3px" d="M2752.52,3055.25l2.96-.5,1,6-2.96.5Z" transform="translate(0 -2812)"/>
    <path class="cls-8" fill='#5e6f64' fill-rule='evenodd' stroke='#1f1f1f' stroke-width="3px" d="M1115.14,3059.97l-2.28-1.94,181-212,2.28,1.94Z" transform="translate(0 -2812)"/>
    <path class="cls-8" fill='#5e6f64' fill-rule='evenodd' stroke='#1f1f1f' stroke-width="3px" d="M702.671,3077.34l-1.342-2.68,6-3,1.342,2.68Z" transform="translate(0 -2812)"/>
    <path class="cls-8" fill='#5e6f64' fill-rule='evenodd' stroke='#1f1f1f' stroke-width="3px" d="M299.526,3056.4l-1.052-2.8,633-237,1.052,2.8Z" transform="translate(0 -2812)"/>
    <path class="cls-8" fill='#5e6f64' fill-rule='evenodd' stroke='#1f1f1f' stroke-width="3px" d="M289.519,3056.41l-1.038-2.82,643-237,1.038,2.82Z" transform="translate(0 -2812)"/>
    <path class="cls-8" fill='#5e6f64' fill-rule='evenodd' stroke='#1f1f1f' stroke-width="3px" d="M292.772,3076.29l-1.544-2.58,5-3,1.544,2.58Z" transform="translate(0 -2812)"/>
    <path class="cls-8" fill='#5e6f64' fill-rule='evenodd' stroke='#1f1f1f' stroke-width="3px" d="M0.4,3023.45l-0.8-2.9,738-204,0.8,2.9Z" transform="translate(0 -2812)"/>
    <path class="cls-8" fill='#5e6f64' fill-rule='evenodd' stroke='#1f1f1f' stroke-width="3px" d="M0.321,2938.47l-0.642-2.94,543-119,0.642,2.94Z" transform="translate(0 -2812)"/>
    <path class="cls-8" fill='#5e6f64' fill-rule='evenodd' stroke='#1f1f1f' stroke-width="3px" d="M0.267,2882.48l-0.534-2.96,348-63,0.534,2.96Z" transform="translate(0 -2812)"/>
    <path class="cls-8" fill='#5e6f64' fill-rule='evenodd' stroke='#1f1f1f' stroke-width="3px" d="M0.235,2842.48l-0.47-2.96,145-23,0.47,2.96Z" transform="translate(0 -2812)"/>
    <path class="cls-8" fill='#5e6f64' fill-rule='evenodd' stroke='#1f1f1f' stroke-width="3px" d="M2999.39,3008.55l-0.78,2.9-712-192,0.78-2.9Z" transform="translate(0 -2812)"/>
    <path class="cls-8" fill='#5e6f64' fill-rule='evenodd' stroke='#1f1f1f' stroke-width="3px" d="M2999.32,2928.53l-0.64,2.94-520-112,0.64-2.94Z" transform="translate(0 -2812)"/>
    <path class="cls-8" fill='#5e6f64' fill-rule='evenodd' stroke='#1f1f1f' stroke-width="3px" d="M3000.27,2874.52l-0.54,2.96-323-58,0.54-2.96Z" transform="translate(0 -2812)"/>
    <path class="cls-9" fill='#1a1a1a' fill-rule='evenodd' stroke='#1f1f1f' stroke-width="3px" d="M3000,2837.04l-0.44,2.97L2865,2819.96l0.44-2.97Z" transform="translate(0 -2812)"/>
    <path class="cls-9" fill='#1a1a1a' fill-rule='evenodd' stroke='#1f1f1f' stroke-width="3px" d="M3000,2813.5v3l-3005,2,0-3Z" transform="translate(0 -2812)"/>
    <path class="cls-8" fill='#5e6f64' fill-rule='evenodd' stroke='#1f1f1f' stroke-width="3px" d="M708.745,3058.3l-1.49-2.6,418.005-239,1.48,2.6Z" transform="translate(0 -2812)"/>
    <path class="cls-8" fill='#5e6f64' fill-rule='evenodd' stroke='#1f1f1f' stroke-width="3px" d="M703.733,3056.31l-1.466-2.62,423-237,1.46,2.62Z" transform="translate(0 -2812)"/>
  </g>
</svg>
