<svg xmlns="http://www.w3.org/2000/svg" viewBox="0 0 331.38 655.56"><path class="cls-1" fill="#d0d0d0" fill-rule="evenodd" stroke="#212121" stroke-width="3" d="M35.51 1.5h260.37a34 34 0 0 1 34 34v584.56a34 34 0 0 1-34 34H35.51a34 34 0 0 1-34-34V35.5a34 34 0 0 1 34-34z"/><path class="cls-2" fill="#212121" fill-rule="evenodd" d="M21.82 75.56h286.69v506.97H21.82V75.56z"/><circle class="cls-3" fill="#212121" cx="109.38" cy="40.56" r="4.5"/><rect class="cls-3" fill="#212121" x="136.88" y="38.06" width="57" height="4" rx="2" ry="2"/><path class="cls-4" fill="none" stroke="#212121" stroke-width="3" d="M165.16 596.01a21.257 21.257 0 0 1 0 42.5c-11.44 0-20.72-9.52-20.72-21.25a20.99 20.99 0 0 1 20.72-21.25z"/></svg>